<svg viewBox="-4 -2 108 108" fill="none" xmlns="http://www.w3.org/2000/svg" preserveAspectRatio="xMidYMid meet">
<path opacity="0.3" d="M51.6547 40.8059C53.4103 40.8059 54.8525 39.378 54.6494 37.6342C54.1486 33.3345 52.6346 29.1983 50.2129 25.574C47.2003 21.0654 42.9184 17.5513 37.9086 15.4762C32.8989 13.4011 27.3863 12.8582 22.068 13.916C16.7497 14.9739 11.8645 17.5851 8.03018 21.4194C4.1959 25.2537 1.58469 30.1389 0.526812 35.4572C-0.531063 40.7755 0.0118851 46.2881 2.08698 51.2979C4.16208 56.3076 7.67618 60.5895 12.1848 63.6021C15.8091 66.0238 19.9452 67.5378 24.245 68.0386C25.9888 68.2417 27.4167 66.7995 27.4167 65.0439V43.9847C27.4167 42.2291 28.8399 40.8059 30.5955 40.8059L51.6547 40.8059Z" fill="url(#paint0_radial_1775_130)"/>
<path opacity="0.37" d="M45.6948 40.8061C47.4504 40.8061 48.8977 39.3753 48.6385 37.639C48.1731 34.5203 47.0238 31.5289 45.2575 28.8855C42.8998 25.357 39.5487 22.6068 35.6281 20.9829C31.7074 19.3589 27.3932 18.934 23.2311 19.7619C19.0689 20.5898 15.2457 22.6333 12.2449 25.6341C9.2442 28.6348 7.20064 32.458 6.37274 36.6202C5.54484 40.7823 5.96975 45.0966 7.59374 49.0172C9.21773 52.9379 11.9679 56.289 15.4964 58.6466C18.1398 60.4129 21.1312 61.5622 24.2498 62.0277C25.9862 62.2868 27.417 60.8395 27.417 59.0839V43.9849C27.417 42.2293 28.8402 40.8061 30.5958 40.8061L45.6948 40.8061Z" fill="url(#paint1_radial_1775_130)"/>
<path opacity="0.62" d="M37.7479 40.8067C39.5034 40.8067 40.9636 39.3644 40.5543 37.6572C40.1839 36.112 39.5418 34.6361 38.6498 33.3011C37.1654 31.0795 35.0554 29.3479 32.5868 28.3254C30.1183 27.3029 27.4019 27.0353 24.7813 27.5566C22.1607 28.0779 19.7535 29.3646 17.8641 31.2539C15.9748 33.1433 14.6881 35.5505 14.1668 38.1711C13.6455 40.7917 13.9131 43.5081 14.9356 45.9767C15.9581 48.4452 17.6897 50.5552 19.9113 52.0396C21.2463 52.9316 22.7222 53.5737 24.2674 53.9441C25.9746 54.3534 27.4169 52.8932 27.4169 51.1377V43.9855C27.4169 42.2299 28.8401 40.8067 30.5957 40.8067L37.7479 40.8067Z" fill="url(#paint2_radial_1775_130)"/>
<path d="M30.993 40.8067C32.7486 40.8067 34.2336 39.3087 33.4375 37.7439C33.317 37.507 33.1822 37.2765 33.0334 37.0539C32.2912 35.9431 31.2362 35.0773 30.0019 34.566C28.7676 34.0548 27.4095 33.921 26.0992 34.1816C24.7888 34.4423 23.5852 35.0856 22.6406 36.0303C21.6959 36.975 21.0525 38.1786 20.7919 39.4889C20.5313 40.7992 20.665 42.1574 21.1763 43.3916C21.6875 44.6259 22.5533 45.6809 23.6642 46.4231C23.8868 46.5719 24.1172 46.7067 24.3542 46.8273C25.9189 47.6233 27.417 46.1383 27.417 44.3828V43.9854C27.417 42.2299 28.8401 40.8067 30.5957 40.8067L30.993 40.8067Z" fill="url(#paint3_radial_1775_130)"/>
<path d="M63.7284 91V61.0309C63.7284 56.3929 62.5095 52.7359 60.0715 50.0601C57.693 47.3843 54.3631 46.0464 50.0818 46.0464C47.1087 46.0464 44.5518 46.9086 42.4112 48.633C40.2705 50.3574 38.6056 52.6467 37.4163 55.5009C36.2865 58.2957 35.7216 61.3877 35.7216 64.7771L35.0081 56.2145C36.3163 51.6954 38.338 48.2763 41.0733 45.9572C43.868 43.5787 47.1682 42.3895 50.9737 42.3895C54.2442 42.3895 57.1281 43.1328 59.6255 44.6193C62.1824 46.0464 64.1744 47.9492 65.6015 50.3277C67.0286 52.6467 67.7421 55.1442 67.7421 57.82V91H63.7284ZM31.6187 91V43.7274H35.0081L35.7216 55.5009V91H31.6187ZM95.7489 91V61.0309C95.7489 56.3929 94.53 52.7359 92.092 50.0601C89.7135 47.3843 86.4133 46.0464 82.1915 46.0464C79.2184 46.0464 76.6318 46.8789 74.4317 48.5438C72.291 50.2088 70.6261 52.4386 69.4368 55.2334C68.307 57.9686 67.7421 61.0309 67.7421 64.4203L66.4934 56.7497C68.0395 51.6954 70.2396 48.0384 73.0938 45.7788C75.948 43.5193 79.2779 42.3895 83.0834 42.3895C86.5323 42.3895 89.4757 43.1328 91.9136 44.6193C94.411 46.0464 96.3436 48.0979 97.7112 50.7737C99.0788 53.4495 99.7626 56.6307 99.7626 60.3174V91H95.7489Z" fill="white"/>
<defs>
<radialGradient id="paint0_radial_1775_130" cx="0" cy="0" r="1" gradientUnits="userSpaceOnUse" gradientTransform="translate(27.4167 40.8059) rotate(0.193566) scale(24.5178)">
<stop stop-color="white"/>
<stop offset="1" stop-color="white"/>
</radialGradient>
<radialGradient id="paint1_radial_1775_130" cx="0" cy="0" r="1" gradientUnits="userSpaceOnUse" gradientTransform="translate(27.417 40.8061) rotate(0.193566) scale(19.1879)">
<stop stop-color="white"/>
<stop offset="1" stop-color="white"/>
</radialGradient>
<radialGradient id="paint2_radial_1775_130" cx="0" cy="0" r="1" gradientUnits="userSpaceOnUse" gradientTransform="translate(27.4169 40.8067) rotate(0.193566) scale(12.0812)">
<stop stop-color="white"/>
<stop offset="1" stop-color="white"/>
</radialGradient>
<radialGradient id="paint3_radial_1775_130" cx="0" cy="0" r="1" gradientUnits="userSpaceOnUse" gradientTransform="translate(27.417 40.8067) rotate(0.193566) scale(6.04062)">
<stop stop-color="white"/>
<stop offset="1" stop-color="white"/>
</radialGradient>
</defs>
</svg>
