<svg width="20" height="20" viewBox="0 0 24 24" fill="none" xmlns="http://www.w3.org/2000/svg"><defs><mask id="xdm"><rect width="24" height="24" rx="5.5" fill="white"/><path d="M9.1 6.4L6.85 10.2L4.6 6.4H2.9L5.95 11.5L2.8 16.4H4.5L6.85 12.5L9.2 16.4H10.9L7.75 11.5L10.8 6.4H9.1Z" fill="black"/><path d="M15.05 16.55C13.25 16.55 12.2 15.3 12.2 13.1C12.2 10.85 13.35 9.55 15.05 9.55C15.65 9.55 16.2 9.75 16.6 10.15V6.4H18.25V15.95C17.7 16.18 16.85 16.55 15.75 16.55H15.05ZM16.6 11.25C16.3 10.95 15.8 10.75 15.25 10.75C14.1 10.75 13.6 11.7 13.6 13.1C13.6 14.5 14.1 15.3 15.25 15.3C15.65 15.3 16.15 15.15 16.6 14.85V11.25Z" fill="black"/></mask></defs><rect width="24" height="24" rx="5.5" fill="white" mask="url(#xdm)"/></svg>