<svg width="14" height="20" viewBox="0 0 9 13" fill="none" xmlns="http://www.w3.org/2000/svg"><path fill-rule="evenodd" clip-rule="evenodd" d="M2.47837 0.00060537C1.95248 0.000216809 1.44012 0.166723 1.0155 0.476007C0.590878 0.785292 0.27604 1.2213 0.116585 1.72087C-0.0428688 2.22045 -0.0386595 2.75765 0.128604 3.25468C0.295868 3.75171 0.617501 4.18276 1.04692 4.48539C0.723678 4.71345 0.460059 5.01551 0.278205 5.3662C0.0963514 5.71689 0.00157442 6.10596 0.00183565 6.50074C0.00183565 7.33275 0.414895 8.06923 1.04813 8.51608C0.70123 8.76087 0.423363 9.09055 0.241265 9.47339C0.0591664 9.85623 -0.0210341 10.2793 0.00837994 10.702C0.037794 11.1247 0.175832 11.5327 0.409214 11.8868C0.642595 12.2409 0.963465 12.5292 1.34095 12.7239C1.71844 12.9186 2.13983 13.0132 2.5646 12.9985C2.98936 12.9839 3.40319 12.8605 3.76628 12.6403C4.12937 12.42 4.42949 12.1103 4.63777 11.741C4.84605 11.3717 4.95547 10.9551 4.95552 10.5314V8.41268C5.21316 8.62077 5.5101 8.77515 5.82873 8.86668C6.14735 8.95822 6.48117 8.98503 6.81038 8.94553C7.13959 8.90604 7.4575 8.80104 7.74524 8.63676C8.03298 8.47249 8.2847 8.25228 8.48547 7.9892C8.68624 7.72612 8.83197 7.42553 8.91401 7.10525C8.99606 6.78497 9.01275 6.45153 8.9631 6.12469C8.91345 5.79786 8.79846 5.4843 8.62496 5.2026C8.45147 4.9209 8.22299 4.67681 7.95308 4.48479C8.3825 4.18216 8.70413 3.75111 8.8714 3.25408C9.03866 2.75705 9.04287 2.21984 8.88341 1.72027C8.72396 1.22069 8.40912 0.784687 7.9845 0.475403C7.55987 0.166118 7.04751 -0.000387883 6.52163 6.78518e-07L2.47837 0.00060537ZM4.04509 8.06258H2.47837C2.06277 8.06258 1.6642 7.89799 1.37032 7.60503C1.07645 7.31207 0.911355 6.91474 0.911355 6.50043C0.911355 6.08612 1.07645 5.68878 1.37032 5.39582C1.6642 5.10286 2.06277 4.93828 2.47837 4.93828H4.04509V8.06258ZM2.47837 4.0319H4.04509V0.9076H2.47837C2.06277 0.9076 1.6642 1.07218 1.37032 1.36514C1.07645 1.6581 0.911355 2.05544 0.911355 2.46975C0.911355 2.88406 1.07645 3.28139 1.37032 3.57435C1.6642 3.86731 2.06277 4.0319 2.47837 4.0319ZM8.08895 2.46945C8.08911 2.88346 7.92437 3.28061 7.63093 3.57359C7.33749 3.86657 6.93936 4.03141 6.52405 4.0319H4.95491V0.9076H6.52223C6.93783 0.9076 7.3364 1.07218 7.63027 1.36514C7.92415 1.6581 8.08924 2.05514 8.08895 2.46945ZM4.95491 6.49892C4.95539 6.08532 5.12042 5.6888 5.41379 5.39634C5.70716 5.10388 6.10492 4.93937 6.51981 4.93889H6.52345C7.36197 4.93937 8.04083 5.63156 8.04083 6.50074C8.04083 6.91505 7.87574 7.31239 7.58186 7.60535C7.28799 7.89831 6.88942 8.06289 6.47382 8.06289C6.05822 8.06289 5.65965 7.89831 5.36577 7.60535C5.0719 7.31239 4.9068 6.91505 4.9068 6.50074L4.95491 6.49892ZM2.47837 8.96958C2.06277 8.96958 1.6642 9.13416 1.37032 9.42712C1.07645 9.72008 0.911355 10.1174 0.911355 10.5317C0.911355 10.946 1.07645 11.3434 1.37032 11.6363C1.6642 11.9293 2.06277 12.0939 2.47837 12.0939C2.89397 12.0939 3.29254 11.9293 3.58641 11.6363C3.88029 11.3434 4.04539 10.946 4.04539 10.5317V8.96958H2.47837Z" fill="black"/></svg>