<svg width="24" height="24" viewBox="0 0 24 24" fill="none" xmlns="http://www.w3.org/2000/svg">
<g clip-path="url(#clip0_1750_8)">
<path d="M22.84 2.99814V20.9971C22.844 21.7881 22.5337 22.5483 21.9773 23.1105C21.4209 23.6727 20.664 23.9909 19.873 23.9951C19.75 23.996 19.6271 23.9893 19.505 23.9751C18.7667 23.8656 18.094 23.49 17.6133 22.9191C17.1326 22.3482 16.8772 21.6213 16.895 20.8751V3.12014C16.8773 2.37327 17.1335 1.64574 17.6152 1.07471C18.0969 0.503667 18.7708 0.128573 19.51 0.0201391C19.9294 -0.028839 20.3543 0.0117642 20.7568 0.139264C21.1593 0.266763 21.5302 0.478255 21.8449 0.759753C22.1595 1.04125 22.4109 1.38634 22.5823 1.77221C22.7536 2.15808 22.8421 2.57593 22.84 2.99814ZM4.13299 18.0551C3.73805 18.0479 3.34562 18.1194 2.97864 18.2656C2.61165 18.4117 2.27747 18.6295 1.99561 18.9062C1.71374 19.183 1.48986 19.5131 1.33702 19.8773C1.18419 20.2416 1.10547 20.6326 1.10547 21.0276C1.10547 21.4226 1.18419 21.8137 1.33702 22.1779C1.48986 22.5422 1.71374 22.8723 1.99561 23.1491C2.27747 23.4258 2.61165 23.6436 2.97864 23.7897C3.34562 23.9359 3.73805 24.0074 4.13299 24.0001C4.91191 23.9859 5.65409 23.6664 6.19989 23.1105C6.74568 22.5546 7.05147 21.8067 7.05147 21.0276C7.05147 20.2486 6.74568 19.5007 6.19989 18.9448C5.65409 18.3889 4.91191 18.0694 4.13299 18.0551ZM12.005 9.04514H11.955C11.1614 9.08857 10.4158 9.43909 9.87599 10.0225C9.33623 10.606 9.04466 11.3765 9.06299 12.1711V20.1561C9.06299 22.3231 10.017 23.6381 11.413 23.9191C11.8462 24.007 12.2935 23.9973 12.7225 23.8909C13.1514 23.7844 13.5513 23.5837 13.8931 23.3035C14.2349 23.0233 14.5101 22.6704 14.6986 22.2707C14.8871 21.8709 14.9842 21.4341 14.983 20.9921V12.0331C14.9836 11.6414 14.9071 11.2534 14.7578 10.8912C14.6085 10.529 14.3894 10.1998 14.1128 9.92237C13.8363 9.64491 13.5078 9.42463 13.1462 9.27412C12.7845 9.1236 12.3967 9.0458 12.005 9.04514Z" fill="white"/>
</g>
<defs>
<clipPath id="clip0_1750_8">
<rect width="24" height="24" fill="white"/>
</clipPath>
</defs>
</svg>
