<svg width="16" height="16" viewBox="0 0 16 16" fill="none" xmlns="http://www.w3.org/2000/svg"><path d="M15.8242 15.8242H0.175781V0.175781H15.8242V15.8242ZM7.21387 11.1523C7.21388 11.957 7.25488 12.6948 7.12402 12.9209C6.90982 13.3653 6.3554 13.3098 6.10254 13.2236C5.84516 13.0971 5.71412 12.9173 5.5625 12.6631C5.52129 12.5908 5.49025 12.5345 5.47949 12.5293L4.28906 13.2578C4.4869 13.6639 4.7781 14.0171 5.15137 14.2461C5.70912 14.5808 6.45916 14.6829 7.24316 14.5029C7.75333 14.3543 8.19332 14.0466 8.42383 13.5781C8.75708 12.9637 8.68562 12.22 8.68262 11.3975C8.69012 10.0557 8.68262 8.71418 8.68262 7.36816H7.21973L7.21387 11.1523ZM11.4736 7.33594C11.0319 7.44758 10.6111 7.6794 10.3643 7.99023C9.62363 8.83075 9.83499 10.3009 10.7363 10.9062C11.6241 11.5726 12.9275 11.7248 13.0947 12.3477C13.2569 13.1107 12.5339 13.3583 11.8154 13.2705C11.2861 13.1603 10.9921 12.8906 10.6738 12.4014C10.088 12.7404 10.0873 12.7407 9.48535 13.0869C9.62822 13.3993 9.7781 13.5409 10.0176 13.8115C11.151 14.9612 13.9871 14.905 14.4961 13.165C14.5167 13.1053 14.6541 12.7062 14.5439 12.0918C14.4293 11.3781 13.9634 10.7787 12.585 10.2197C12.106 9.9996 11.5712 9.84152 11.4121 9.47852C11.3557 9.26746 11.349 9.14832 11.3848 9.02051C11.4875 8.60567 11.9824 8.47672 12.375 8.5957C12.6278 8.68048 12.8674 8.87481 13.0117 9.18555C13.6868 8.74842 13.6858 8.75164 14.1572 8.45117C13.9846 8.18362 13.8923 8.05979 13.7793 7.94531C13.3732 7.49169 12.8196 7.25752 11.9346 7.27539L11.4736 7.33594Z" fill="#F0DB4F"/></svg>