<svg width="20" height="20" viewBox="0 0 24 24" fill="none" xmlns="http://www.w3.org/2000/svg"><path d="M10.45 10.48C10.4651 10.7836 10.3734 11.083 10.1907 11.3259C10.008 11.5689 9.7459 11.7402 9.45 11.81C8.92799 11.9641 8.38356 12.0284 7.84 12C7.7 12 7.69 11.91 7.69 11.81V9.25999C7.69 9.18999 7.76 9.06999 7.8 9.06999C8.37204 9.00593 8.95089 9.04317 9.51 9.17999C9.79138 9.2571 10.038 9.42803 10.2089 9.66446C10.3799 9.90088 10.4649 10.1886 10.45 10.48Z" fill="#31A8FF"/><path d="M17 2H7C5.67392 2 4.40215 2.52678 3.46447 3.46447C2.52678 4.40215 2 5.67392 2 7V17C2 18.3261 2.52678 19.5979 3.46447 20.5355C4.40215 21.4732 5.67392 22 7 22H17C18.3261 22 19.5979 21.4732 20.5355 20.5355C21.4732 19.5979 22 18.3261 22 17V7C22 5.67392 21.4732 4.40215 20.5355 3.46447C19.5979 2.52678 18.3261 2 17 2ZM11 13C10.4953 13.3205 9.91693 13.5064 9.32 13.54H7.98C7.7 13.54 7.7 13.54 7.7 13.81V16.13C7.7 16.33 7.64 16.39 7.44 16.39H6.12C5.93 16.39 5.88 16.32 5.88 16.14V7.71C5.88 7.51 5.88 7.45 6.13 7.45H9.26C9.83132 7.46548 10.3891 7.62731 10.88 7.92C11.3039 8.15888 11.6569 8.50598 11.9029 8.92587C12.1488 9.34575 12.279 9.82338 12.28 10.31C12.3378 10.833 12.2487 11.3619 12.0226 11.8371C11.7965 12.3122 11.4424 12.715 11 13ZM16.92 16.3C16.0503 16.6388 15.0982 16.7051 14.19 16.49C13.9173 16.43 13.6507 16.35 13.39 16.25C13.23 16.05 13.23 16.05 13.23 16.05V14.54C13.55 14.66 13.85 14.8 14.16 14.9C14.6795 15.066 15.2296 15.1139 15.77 15.04C16.08 14.94 16.28 14.82 16.3 14.65C16.32 14.45 16.2 14.31 15.43 13.91C15.02 13.71 14.6 13.55 14.21 13.32C13.5 12.96 13.21 12.48 13.21 11.39C13.2609 11.018 13.4154 10.6679 13.6559 10.3797C13.8964 10.0914 14.2132 9.87667 14.57 9.76C15.2131 9.54252 15.8994 9.48419 16.57 9.59C16.89 9.59 17.2 9.71 17.52 9.77C17.69 9.77 17.74 10.08 17.74 10.08V11.25C17.49 11.41 17.49 11.41 17.49 11.41C16.8654 11.1208 16.175 11.0035 15.49 11.07C15.21 11.15 15.02 11.27 15.11 11.78C15.3993 11.9727 15.7027 12.1393 16.02 12.28C16.4 12.47 16.8 12.62 17.17 12.83C17.84 13.24 18.17 13.79 18.17 14.62C18.04 15.6 17.6 16.09 16.92 16.3Z" fill="#31A8FF"/></svg>