<svg width="22" height="20" viewBox="0 0 16 16" fill="none" xmlns="http://www.w3.org/2000/svg"><path d="M8 3.7915C3.58175 3.7915 0 5.67588 0 8C0 10.3241 3.58175 12.2085 8 12.2085C12.4181 12.2085 16 10.3241 16 8C16 5.67588 12.4183 3.7915 8 3.7915ZM7.25225 5.01775H8.16387V5.01813L7.94575 6.13913H8.75775C9.26875 6.13913 9.62117 6.22825 9.815 6.4065C10.009 6.58484 10.0672 6.87359 9.98975 7.27275L9.60812 9.23525H8.68213L9.04488 7.36913C9.08613 7.15696 9.07092 7.01225 8.99925 6.935C8.92758 6.85792 8.77517 6.81938 8.542 6.81938H7.8135L7.344 9.235H6.43262L7.25225 5.01775ZM3.34125 6.13925H5.10787C5.63946 6.13925 6.02717 6.27875 6.271 6.55775C6.51475 6.83667 6.588 7.22609 6.49075 7.726C6.45067 7.932 6.38296 8.12034 6.28762 8.291C6.19229 8.46167 6.06771 8.61771 5.91388 8.75913C5.73038 8.9308 5.52658 9.05313 5.3025 9.12613C5.07825 9.19913 4.7925 9.23559 4.44525 9.2355H3.6585L3.44038 10.3568H2.52163L3.34125 6.13925ZM10.512 6.13925H12.2782C12.8097 6.13925 13.1974 6.27875 13.4411 6.55775C13.6852 6.83667 13.7585 7.22609 13.6614 7.726C13.6214 7.932 13.5537 8.12034 13.4585 8.291C13.3632 8.46167 13.2386 8.61771 13.0845 8.75913C12.9012 8.9308 12.6973 9.05313 12.4729 9.12613C12.2487 9.19913 11.9631 9.23559 11.616 9.2355H10.8291L10.6111 10.3568H9.69238L10.512 6.13925ZM4.13062 6.80488L3.78787 8.56988H4.34637C4.71687 8.56996 4.99279 8.50025 5.17413 8.36075C5.35529 8.22117 5.47767 7.98817 5.54125 7.66175C5.60192 7.34825 5.57417 7.12705 5.458 6.99813C5.34183 6.86921 5.10917 6.80475 4.76 6.80475L4.13062 6.80488ZM11.301 6.80488L10.958 8.56988H11.5168C11.8873 8.56996 12.1632 8.50025 12.3445 8.36075C12.5256 8.22117 12.6479 7.98817 12.7114 7.66175C12.7722 7.34825 12.7445 7.12705 12.6284 6.99813C12.5122 6.86921 12.2795 6.80475 11.9304 6.80475L11.301 6.80488Z" fill="#777BB4"/></svg>