<svg width="16" height="18" viewBox="0 0 16 18" fill="none" xmlns="http://www.w3.org/2000/svg"><path d="M10.85 2.10047C10.85 2.10047 10.65 2.16047 10.31 2.27047C10.25 2.09047 10.17 1.86047 10.05 1.64047C9.67 0.910468 9.11 0.530468 8.43 0.520468C8.38 0.520468 8.34 0.520468 8.29 0.530468C8.27 0.510468 8.25 0.480468 8.23 0.460468C7.94 0.140468 7.56 -0.00953155 7.11 0.000468445C6.24 0.0304684 5.37 0.660469 4.66 1.78047C4.16 2.57047 3.79 3.56047 3.68 4.32047C2.68 4.63047 1.98 4.85047 1.96 4.85047C1.45 5.01047 1.44 5.03047 1.37 5.50047C1.32 5.86047 0 16.1005 0 16.1005L10.98 18.0005V2.08047C10.93 2.08047 10.88 2.09047 10.85 2.10047ZM8.31 2.89047C7.73 3.07047 7.09 3.27047 6.46 3.46047C6.64 2.77047 6.98 2.09047 7.4 1.64047C7.56 1.47047 7.77 1.29047 8.03 1.18047C8.27 1.69047 8.32 2.40047 8.31 2.89047ZM7.12 0.580468C7.32 0.580468 7.5 0.620468 7.65 0.720468C7.41 0.840468 7.19 1.02047 6.97 1.25047C6.42 1.84047 5.99 2.77047 5.82 3.66047C5.29 3.82047 4.78 3.98047 4.3 4.13047C4.6 2.72047 5.78 0.620468 7.12 0.580468ZM5.42 8.57047C5.48 9.50047 7.94 9.71047 8.08 11.9005C8.19 13.6205 7.17 14.8005 5.69 14.8905C3.93 15.0005 2.95 13.9605 2.95 13.9605L3.32 12.3705C3.32 12.3705 4.3 13.1105 5.08 13.0605C5.59 13.0305 5.77 12.6105 5.76 12.3205C5.68 11.1005 3.68 11.1705 3.56 9.17047C3.45 7.48047 4.56 5.78047 7 5.62047C7.95 5.56047 8.43 5.80047 8.43 5.80047L7.87 7.89047C7.87 7.89047 7.25 7.61047 6.51 7.65047C5.43 7.72047 5.41 8.40047 5.42 8.57047ZM8.89 2.71047C8.88 2.27047 8.83 1.65047 8.62 1.12047C9.28 1.25047 9.61 1.99047 9.75 2.44047C9.5 2.52047 9.21 2.61047 8.89 2.71047ZM11.34 17.9605L15.9 16.8305C15.9 16.8305 13.94 3.57047 13.93 3.48047C13.92 3.39047 13.84 3.34047 13.77 3.33047C13.7 3.32047 12.42 3.30047 12.42 3.30047C12.42 3.30047 11.64 2.54047 11.34 2.25047V17.9605Z" fill="black"/></svg>