<svg width="16" height="16" viewBox="0 0 16 16" fill="none" xmlns="http://www.w3.org/2000/svg"><path d="M12.6332 7.65272C12.6332 6.80472 12.3282 6.21772 12.0672 5.76072L11.9872 5.63072C11.6702 5.12072 11.3932 4.67272 11.3932 4.15072C11.3932 3.52072 11.8712 2.93272 12.5452 2.93272C12.5652 2.93272 12.5846 2.93372 12.6032 2.93572L12.6342 2.93872C11.3703 1.77803 9.71625 1.13483 8.00023 1.13672C6.86298 1.13659 5.74354 1.41919 4.74262 1.95909C3.74171 2.499 2.89072 3.27928 2.26623 4.22972C2.42623 4.23472 2.57923 4.23872 2.70823 4.23872C3.42523 4.23872 4.53623 4.15172 4.53623 4.15172C4.90623 4.12972 4.95023 4.67272 4.58023 4.71672C4.58023 4.71672 4.20923 4.76072 3.79523 4.78172L6.29523 12.2157L7.79523 7.70972L6.72523 4.78072C6.35623 4.75872 6.00623 4.71572 6.00623 4.71572C5.63623 4.69372 5.68023 4.12772 6.04923 4.14972C6.04923 4.14972 7.18323 4.23672 7.85723 4.23672C8.57523 4.23672 9.68723 4.14972 9.68723 4.14972C10.0572 4.12772 10.1002 4.67172 9.73023 4.71572C9.73023 4.71572 9.35823 4.75872 8.94523 4.78072L11.4252 12.1577L12.1092 9.87072L12.1632 9.69772C12.4332 8.83772 12.6322 8.20272 12.6322 7.65172L12.6332 7.65272ZM1.13723 7.99972C1.13669 9.28857 1.49924 10.5515 2.18335 11.6438C2.86745 12.7361 3.84543 13.6136 5.00523 14.1757L1.73023 5.20572C1.33699 6.08457 1.13486 7.03691 1.13723 7.99972Z" fill="black"/><path d="M6.06104 14.583L8.12104 8.60003L10.23 14.38C10.2434 14.4134 10.2597 14.4447 10.279 14.474C8.91953 14.9533 7.44348 14.9914 6.06104 14.583ZM14.021 4.70703C14.0517 4.9257 14.0674 5.16103 14.068 5.41303C14.068 6.10903 13.938 6.89203 13.546 7.87103L11.45 13.931C12.9967 13.0324 14.1313 11.5651 14.6117 9.84204C15.0922 8.11896 14.8806 6.27635 14.022 4.70703H14.021Z" fill="black"/><path fill-rule="evenodd" clip-rule="evenodd" d="M0 8C0 3.589 3.589 0 8 0C12.411 0 16 3.589 16 8C16 12.411 12.41 16 8 16C3.59 16 0 12.411 0 8ZM0.367 8C0.367 12.209 3.791 15.633 8 15.633C12.209 15.633 15.632 12.209 15.632 8C15.632 3.79 12.208 0.367 8 0.367C3.79 0.367 0.367 3.79 0.367 8Z" fill="black"/></svg>